Source: A Friend
 
http://www.imdb.com/title/tt2212658/

A baby abducted at birth and raised by the woman who took her, eventually discovers she is a missing child, reconnects with her birth parents, and struggles with choosing between her two identities.

General
Complete name                            : Abducted The Carlina White Story 2012 DVDRip x264 AAC-OFFLiNE.mp4
Format                                   : MPEG-4
Format profile                           : Base Media
Codec ID                                 : isom
File size                                : 1.44 GiB
Duration                                 : 2h 10mn
Overall bit rate mode                    : Variable
Overall bit rate                         : 1 573 Kbps
Encoded date                             : UTC 2013-03-16 23:08:06
Tagged date                              : UTC 2013-03-16 23:08:06

Video
ID                                       : 1
Format                                   : AVC
Format/Info                              : Advanced Video Codec
Format profile                           : High@L4.1
Format settings, CABAC                   : Yes
Format settings, ReFrames                : 3 frames
Codec ID                                 : avc1
Codec ID/Info                            : Advanced Video Coding
Duration                                 : 2h 10mn
Bit rate mode                            : Variable
Bit rate                                 : 1 448 Kbps
Maximum bit rate                         : 40.0 Mbps
Width                                    : 720 pixels
Height                                   : 400 pixels
Display aspect ratio                     : 16:9
Frame rate mode                          : Constant
Frame rate                               : 23.976 fps
Color space                              : YUV
Chroma subsampling                       : 4:2:0
Bit depth                                : 8 bits
Scan type                                : Progressive
Bits/(Pixel*Frame)                       : 0.210
Stream size                              : 1.32 GiB (92%)
Writing library                          : x264 core 130 r2273 b3065e6

Audio
ID                                       : 2
Format                                   : AAC
Format/Info                              : Advanced Audio Codec
Format profile                           : LC
Codec ID                                 : 40
Duration                                 : 2h 10mn
Bit rate mode                            : Variable
Bit rate                                 : 122 Kbps
Maximum bit rate                         : 157 Kbps
Channel(s)                               : 2 channels
Channel positions                        : Front: L R
Sampling rate                            : 48.0 KHz
Compression mode                         : Lossy
Stream size                              : 114 MiB (8%)
Language                                 : English
Encoded date                             : UTC 2013-03-17 00:28:55
Tagged date                              : UTC 2013-03-16 23:08:52
